<?xml version="1.0" ?><svg viewBox="0 0 32 32" xmlns="http://www.w3.org/2000/svg"><defs><style>.cls-1{fill:none;}</style></defs><title/><g data-name="Layer 2" id="Layer_2"><path d="M16,29a1,1,0,0,1-.71-.29l-7.07-7a10.91,10.91,0,0,1,0-15.48,11.07,11.07,0,0,1,15.56,0,10.91,10.91,0,0,1,0,15.48l-7.07,7A1,1,0,0,1,16,29ZM16,5A9,9,0,0,0,9.63,7.62h0a8.91,8.91,0,0,0,0,12.64L16,26.59l6.37-6.33a8.91,8.91,0,0,0,0-12.64A9,9,0,0,0,16,5ZM8.93,6.91h0Z"/><path d="M16,19a5,5,0,1,1,5-5A5,5,0,0,1,16,19Zm0-8a3,3,0,1,0,3,3A3,3,0,0,0,16,11Z"/></g><g id="frame"><rect class="cls-1" height="32" width="32"/></g></svg>