<?xml version="1.0" standalone="no"?>
<!DOCTYPE svg PUBLIC "-//W3C//DTD SVG 20010904//EN"
 "http://www.w3.org/TR/2001/REC-SVG-20010904/DTD/svg10.dtd">
<svg version="1.0" xmlns="http://www.w3.org/2000/svg"
 width="1280.000000pt" height="1280.000000pt" viewBox="0 0 1280.000000 1280.000000"
 preserveAspectRatio="xMidYMid meet">
<metadata>
Created by potrace 1.15, written by Peter Selinger 2001-2017
</metadata>
<g transform="translate(0.000000,1280.000000) scale(0.100000,-0.100000)"
fill="#000000" stroke="none">
<path d="M6090 10754 c-528 -46 -902 -128 -1315 -291 -955 -376 -1830 -1187
-2301 -2133 -219 -441 -346 -879 -411 -1425 -25 -214 -25 -796 0 -1010 51
-425 134 -763 274 -1120 376 -955 1187 -1830 2133 -2301 441 -219 879 -346
1425 -411 214 -25 796 -25 1010 0 650 78 1191 257 1705 564 567 340 1104 859
1472 1424 378 579 579 1156 660 1894 20 186 17 770 -5 960 -50 423 -134 763
-274 1120 -376 955 -1187 1830 -2133 2301 -438 218 -882 346 -1415 409 -133
16 -708 29 -825 19z m-29 -1209 c-105 -214 -191 -398 -191 -410 0 -43 63 -330
74 -337 6 -4 55 -8 109 -8 l97 0 0 -1175 0 -1176 -140 -248 c-77 -136 -140
-256 -140 -267 0 -14 43 -46 155 -116 l154 -98 224 0 c160 0 226 3 235 12 9 9
12 92 12 313 l0 302 320 554 c176 305 325 555 330 557 5 2 46 -17 91 -42 45
-25 87 -46 93 -46 17 0 176 139 176 153 0 13 16 285 25 422 21 342 36 638 33
680 -2 37 -7 51 -20 53 -9 2 -232 -139 -496 -312 l-479 -316 -21 -107 c-15
-73 -19 -110 -12 -118 6 -7 46 -33 90 -59 44 -25 80 -50 80 -55 0 -7 -194
-346 -206 -360 -2 -2 -4 323 -4 722 l0 727 98 0 c53 0 102 4 108 8 11 7 74
294 74 337 0 12 -85 196 -190 408 -104 213 -190 388 -190 389 0 4 70 0 220
-13 381 -32 835 -155 1140 -309 59 -30 61 -32 47 -53 -83 -129 -289 -540 -281
-560 7 -17 304 -191 328 -191 23 -1 168 206 288 409 39 66 73 122 74 124 6 6
101 -60 198 -138 228 -182 442 -394 621 -616 76 -95 155 -204 155 -215 0 -3
-30 -23 -67 -44 -100 -57 -462 -299 -467 -312 -6 -15 174 -332 192 -339 7 -2
101 40 210 94 178 89 241 122 339 183 l32 19 31 -61 c117 -232 233 -603 279
-895 20 -126 41 -313 41 -361 l0 -24 -137 0 c-146 -1 -495 -24 -513 -35 -14
-8 -14 -382 0 -390 18 -11 367 -34 513 -35 l137 0 0 -24 c0 -48 -21 -235 -41
-361 -46 -291 -162 -663 -279 -894 l-30 -60 -87 51 c-130 76 -484 249 -501
246 -19 -4 -206 -323 -197 -337 11 -18 338 -236 443 -295 56 -32 102 -61 102
-65 0 -12 -76 -118 -155 -216 -176 -218 -388 -430 -610 -608 -89 -71 -195
-147 -205 -147 -4 0 -36 51 -72 113 -68 117 -271 422 -289 432 -12 8 -326
-174 -334 -193 -5 -14 161 -353 244 -495 28 -49 51 -90 51 -93 0 -7 -120 -64
-228 -109 -293 -120 -628 -201 -961 -235 -57 -5 -114 -10 -127 -10 l-24 0 0
138 c0 147 -24 494 -35 511 -9 15 -381 15 -390 0 -11 -17 -35 -364 -35 -511
l0 -138 -24 0 c-48 0 -235 21 -361 41 -291 46 -663 162 -894 279 l-60 30 67
118 c92 157 236 457 229 474 -7 19 -324 201 -337 193 -17 -10 -220 -316 -288
-432 -36 -62 -68 -113 -72 -113 -10 0 -116 76 -205 147 -222 178 -434 390
-610 608 -79 98 -155 204 -155 216 0 4 46 33 103 65 104 59 431 277 442 295 9
14 -178 333 -197 337 -17 3 -371 -170 -501 -246 l-87 -51 -30 60 c-117 231
-233 603 -279 894 -20 126 -41 313 -41 361 l0 24 133 0 c143 0 489 24 506 35
15 9 15 381 0 390 -17 11 -363 35 -506 35 l-133 0 0 24 c0 48 21 235 41 361
46 292 162 663 279 895 35 69 17 71 160 -14 47 -27 168 -90 270 -139 182 -88
185 -89 201 -68 36 44 181 312 176 325 -7 17 -296 212 -432 291 -55 32 -102
60 -104 61 -6 6 60 101 138 198 182 228 394 442 616 621 95 76 204 155 215
155 3 0 23 -30 44 -67 57 -100 299 -462 312 -467 15 -6 332 174 338 191 8 21
-198 431 -281 560 -14 21 -12 23 47 53 305 154 756 276 1140 310 128 11 213
16 218 14 2 -1 -83 -176 -187 -389z"/>
</g>
</svg>
